<svg width="19" height="20" viewBox="0 0 19 20" fill="none" xmlns="http://www.w3.org/2000/svg">
<path d="M15.2562 3.53117L15.21 3.50657C15.2188 3.63798 15.2175 3.77358 15.2006 3.91303C15.0203 5.39865 13.3777 6.21372 12.0859 5.45834C10.7941 4.70251 10.6985 2.86999 11.9053 1.98484C11.9658 1.94052 12.0282 1.90142 12.0904 1.86468L12.0802 1.85965L15.0865 -6.99241e-05L15.2562 3.53117Z" fill="white"/>
<path d="M16.9139 10.162L16.8678 10.1374C16.8765 10.269 16.8753 10.4052 16.8584 10.5449C16.6779 12.0305 15.0344 12.8451 13.7427 12.0893C12.4511 11.3334 12.3563 9.50178 13.5631 8.61668C13.6235 8.57244 13.685 8.53231 13.7471 8.49562L13.7379 8.49051L16.7442 6.63079L16.9139 10.162Z" fill="white"/>
<path d="M18.5719 17.6215L18.5257 17.5969C18.5345 17.7285 18.5333 17.8647 18.5163 18.0043C18.3359 19.49 16.6924 20.3046 15.4007 19.5488C14.1091 18.7929 14.0144 16.9613 15.2211 16.0761C15.2814 16.0319 15.343 15.9918 15.4051 15.9551L15.3959 15.95L18.4022 14.0903L18.5719 17.6215Z" fill="white"/>
<path d="M9.45416 10.1623L9.40803 10.1377C9.4168 10.2693 9.41557 10.4054 9.39862 10.5451C9.21814 12.0307 7.57469 12.8453 6.28295 12.0895C4.99154 11.3336 4.89681 9.50203 6.10339 8.61692C6.16367 8.57272 6.22537 8.53252 6.28739 8.49587L6.27815 8.49075L9.28444 6.63103L9.45416 10.1623Z" fill="white"/>
<path d="M11.112 17.622L11.0659 17.5974C11.0747 17.7289 11.0734 17.8652 11.0565 18.0048C10.8759 19.4903 9.23251 20.305 7.94082 19.5492C6.64932 18.7934 6.5547 16.9618 7.76126 16.0766C7.82152 16.0324 7.88325 15.9922 7.94526 15.9556L7.93602 15.9505L10.9423 14.0908L11.112 17.622Z" fill="white"/>
<path d="M4.48112 17.622L4.43499 17.5974C4.44375 17.7289 4.44253 17.8652 4.42559 18.0048C4.24501 19.4903 2.60161 20.305 1.30991 19.5492C0.0183584 18.7934 -0.076262 16.9618 1.13035 16.0766C1.19063 16.0324 1.25233 15.9922 1.31436 15.9556L1.30511 15.9505L4.31141 14.0908L4.48112 17.622Z" fill="white"/>
</svg>
