<svg width="25" height="27" viewBox="0 0 25 27" fill="none" xmlns="http://www.w3.org/2000/svg">
<path d="M12.8174 0C13.2903 0 13.6736 0.383527 13.6738 0.856445V3.26855L15.249 1.77148C15.7632 1.28285 16.5765 1.30433 17.0654 1.81836C17.5541 2.33269 17.5338 3.14591 17.0195 3.63477L14.6631 5.875C14.3873 6.13713 14.0254 6.2501 13.6738 6.22168V11.7588L18.3877 8.90527C18.1473 8.60439 18.0427 8.19976 18.1416 7.79688L18.9179 4.63965C19.0872 3.95056 19.7835 3.52899 20.4726 3.69824C21.1612 3.86775 21.5829 4.56319 21.414 5.25195L20.8877 7.39062L22.997 6.11328C23.4016 5.86838 23.9287 5.99793 24.1738 6.40234C24.4188 6.80696 24.2893 7.33402 23.8847 7.5791L21.8213 8.82812L23.9179 9.40039C24.6022 9.58734 25.005 10.2941 24.8183 10.9785C24.6314 11.6627 23.9255 12.0664 23.2412 11.8799L20.1045 11.0244C19.7375 10.9243 19.4527 10.6737 19.2949 10.3584L14.497 13.2627L19.332 16.0537C19.4799 15.6983 19.7831 15.4121 20.1836 15.3047L23.3252 14.4639C24.0105 14.2804 24.7137 14.6868 24.8974 15.3721C25.0809 16.0574 24.6746 16.7607 23.9892 16.9443L21.8633 17.5156L23.998 18.748C24.4075 18.9846 24.5478 19.5084 24.3115 19.918C24.075 20.3276 23.5512 20.4679 23.1416 20.2314L21.0527 19.0254L21.5615 21.1387C21.7273 21.8282 21.3027 22.5212 20.6133 22.6875C19.9235 22.8536 19.2288 22.4299 19.0625 21.7402L18.3008 18.5791C18.2116 18.2092 18.2947 17.8391 18.4951 17.5488L13.6738 14.7646V21.1006C14.0538 21.053 14.4513 21.1751 14.7431 21.4668L17.042 23.7656C17.5437 24.2674 17.5437 25.0812 17.042 25.583C16.5402 26.0846 15.7263 26.0847 15.2246 25.583L13.6738 24.0312V25.6973C13.6738 26.1703 13.2904 26.5537 12.8174 26.5537C12.3445 26.5534 11.9609 26.1702 11.9609 25.6973V24.0723L10.3799 25.5762C9.86556 26.0649 9.05233 26.0445 8.56345 25.5303C8.07484 25.016 8.09531 24.2027 8.60934 23.7139L10.9658 21.4736C11.243 21.2101 11.6076 21.095 11.9609 21.125V14.7988L6.56735 18.0645C6.8049 18.3648 6.90693 18.7682 6.80856 19.1689L6.0322 22.3262C5.86291 23.0152 5.16748 23.4366 4.47849 23.2676C3.78951 23.0982 3.36779 22.4019 3.53708 21.7129L4.06052 19.583L2.63571 20.4453C2.23104 20.6904 1.70497 20.5609 1.45993 20.1562C1.21518 19.7517 1.34369 19.2255 1.74802 18.9805L3.13864 18.1387L1.03317 17.5654C0.348776 17.3788 -0.0544738 16.6727 0.131805 15.9883C0.318487 15.3038 1.02444 14.8994 1.70895 15.0859L4.84567 15.9414C5.21478 16.0421 5.50188 16.2944 5.65915 16.6123L11.1318 13.2979L5.60934 10.1094C5.46055 10.4623 5.15642 10.7457 4.75778 10.8525L1.61813 11.6943C0.932695 11.878 0.227577 11.4706 0.0439148 10.7852C-0.139538 10.0999 0.266985 9.3957 0.952118 9.21191L3.07224 8.64453L1.62888 7.81152C1.21928 7.57505 1.07912 7.05125 1.3154 6.6416C1.552 6.23206 2.07569 6.09163 2.48532 6.32812L3.89255 7.14062L3.38083 5.01953C3.21461 4.32972 3.63931 3.63507 4.32907 3.46875C5.01878 3.30271 5.71258 3.72732 5.87888 4.41699L6.64059 7.57812C6.73012 7.94998 6.64804 8.32333 6.44528 8.61426L11.9609 11.7979V6.24512C11.5791 6.29474 11.179 6.17507 10.8857 5.88184L8.58688 3.58203C8.08534 3.08024 8.0852 2.26635 8.58688 1.76465C9.08845 1.26345 9.90157 1.26369 10.4033 1.76465L11.9609 3.32227V0.856445C11.9611 0.383703 12.3446 0.000285944 12.8174 0Z" fill="white"/>
</svg>
