<svg width="20" height="24" viewBox="0 0 20 24" fill="none" xmlns="http://www.w3.org/2000/svg">
<path d="M9.63181 3.23755C14.5343 3.23766 18.5851 7.40179 19.2619 12.8197C19.2693 12.8792 19.2228 12.9319 19.1628 12.9319C19.1212 12.9319 19.084 12.906 19.0685 12.8674C18.5552 11.586 17.4302 10.6958 16.122 10.6956C14.8778 10.6956 13.798 11.5004 13.2535 12.6816C13.1851 12.83 13.0404 12.9319 12.8769 12.9319C12.7135 12.9319 12.5687 12.83 12.5003 12.6816C11.9559 11.5005 10.876 10.6957 9.63181 10.6956C8.38758 10.6956 7.30774 11.5004 6.76331 12.6816C6.69489 12.83 6.55014 12.9319 6.38669 12.9319C6.22324 12.9319 6.07849 12.83 6.01007 12.6816C5.46565 11.5005 4.38575 10.6957 3.14157 10.6956C1.83318 10.6956 0.707644 11.5859 0.194099 12.8674C0.178625 12.906 0.141422 12.9319 0.0998209 12.9319C0.0398788 12.9319 -0.00664801 12.8792 0.000782947 12.8197C0.677669 7.40172 4.72928 3.23755 9.63181 3.23755Z" fill="white"/>
<path d="M10.3235 1.00017C10.3235 0.585955 9.9877 0.250169 9.57349 0.250169C9.15927 0.250169 8.82349 0.585955 8.82349 1.00017L9.57349 1.00017L10.3235 1.00017ZM9.57349 2.4917L10.3235 2.4917L10.3235 1.00017L9.57349 1.00017L8.82349 1.00017L8.82349 2.4917L9.57349 2.4917Z" fill="white"/>
<path d="M12.5608 21.5085C12.5608 21.0943 12.225 20.7585 11.8108 20.7585C11.3966 20.7585 11.0608 21.0943 11.0608 21.5085H11.8108H12.5608ZM9.57349 11.4407H8.82349V21.5085H9.57349H10.3235V11.4407H9.57349ZM9.57349 21.5085H8.82349C8.82349 21.8412 8.89379 22.3462 9.13729 22.7971C9.39833 23.2805 9.89791 23.75 10.6921 23.75V23V22.25C10.6165 22.25 10.5836 22.2319 10.5648 22.219C10.5386 22.2009 10.4993 22.1624 10.4571 22.0843C10.365 21.9138 10.3235 21.673 10.3235 21.5085H9.57349ZM10.6921 23V23.75C11.4864 23.75 11.9859 23.2805 12.247 22.7971C12.4905 22.3462 12.5608 21.8412 12.5608 21.5085H11.8108H11.0608C11.0608 21.673 11.0192 21.9138 10.9271 22.0843C10.885 22.1624 10.8456 22.2009 10.8194 22.219C10.8007 22.2319 10.7678 22.25 10.6921 22.25V23Z" fill="white"/>
</svg>
