<svg width="51" height="51" viewBox="0 0 51 51" fill="none" xmlns="http://www.w3.org/2000/svg">
<g filter="url(#filter0_d_1691_14)">
<circle cx="25.5" cy="25.5" r="17.5" fill="white"/>
</g>
<mask id="path-2-inside-1_1691_14" fill="white">
<path d="M31.1318 18.7021C31.1318 19.2544 31.5796 19.7021 32.1318 19.7021H35.1768C35.729 19.7021 36.1768 20.1499 36.1768 20.7021V32.2139C36.1768 32.7662 35.729 33.2139 35.1768 33.2139H17C16.4477 33.2139 16 32.7662 16 32.2139V20.7021C16 20.1499 16.4477 19.7021 17 19.7021H20.0439C20.5962 19.7021 21.0439 19.2544 21.0439 18.7021V18C21.0439 17.4477 21.4917 17 22.0439 17H30.1318C30.6841 17 31.1318 17.4477 31.1318 18V18.7021Z"/>
</mask>
<path d="M32.1318 19.7021V21.7021H35.1768V19.7021V17.7021H32.1318V19.7021ZM36.1768 20.7021H34.1768V32.2139H36.1768H38.1768V20.7021H36.1768ZM35.1768 33.2139V31.2139H17V33.2139V35.2139H35.1768V33.2139ZM16 32.2139H18V20.7021H16H14V32.2139H16ZM17 19.7021V21.7021H20.0439V19.7021V17.7021H17V19.7021ZM21.0439 18.7021H23.0439V18H21.0439H19.0439V18.7021H21.0439ZM22.0439 17V19H30.1318V17V15H22.0439V17ZM31.1318 18H29.1318V18.7021H31.1318H33.1318V18H31.1318ZM30.1318 17V19C29.5796 19 29.1318 18.5523 29.1318 18H31.1318H33.1318C33.1318 16.3431 31.7887 15 30.1318 15V17ZM21.0439 18H23.0439C23.0439 18.5523 22.5962 19 22.0439 19V17V15C20.3871 15 19.0439 16.3431 19.0439 18H21.0439ZM20.0439 19.7021V21.7021C21.7008 21.7021 23.0439 20.359 23.0439 18.7021H21.0439H19.0439C19.0439 18.1499 19.4917 17.7021 20.0439 17.7021V19.7021ZM16 20.7021H18C18 21.2544 17.5523 21.7021 17 21.7021V19.7021V17.7021C15.3431 17.7021 14 19.0453 14 20.7021H16ZM17 33.2139V31.2139C17.5523 31.2139 18 31.6616 18 32.2139H16H14C14 33.8707 15.3431 35.2139 17 35.2139V33.2139ZM36.1768 32.2139H34.1768C34.1768 31.6616 34.6245 31.2139 35.1768 31.2139V33.2139V35.2139C36.8336 35.2139 38.1768 33.8707 38.1768 32.2139H36.1768ZM35.1768 19.7021V21.7021C34.6245 21.7021 34.1768 21.2544 34.1768 20.7021H36.1768H38.1768C38.1768 19.0453 36.8336 17.7021 35.1768 17.7021V19.7021ZM32.1318 19.7021V17.7021C32.6841 17.7021 33.1318 18.1499 33.1318 18.7021H31.1318H29.1318C29.1318 20.359 30.475 21.7021 32.1318 21.7021V19.7021Z" fill="#9A9A9A" mask="url(#path-2-inside-1_1691_14)"/>
<circle cx="26.0883" cy="25.6474" r="3.32363" stroke="#9A9A9A" stroke-width="2"/>
<defs>
<filter id="filter0_d_1691_14" x="0" y="0" width="51" height="51" filterUnits="userSpaceOnUse" color-interpolation-filters="sRGB">
<feFlood flood-opacity="0" result="BackgroundImageFix"/>
<feColorMatrix in="SourceAlpha" type="matrix" values="0 0 0 0 0 0 0 0 0 0 0 0 0 0 0 0 0 0 127 0" result="hardAlpha"/>
<feOffset/>
<feGaussianBlur stdDeviation="4"/>
<feComposite in2="hardAlpha" operator="out"/>
<feColorMatrix type="matrix" values="0 0 0 0 0 0 0 0 0 0 0 0 0 0 0 0 0 0 0.25 0"/>
<feBlend mode="normal" in2="BackgroundImageFix" result="effect1_dropShadow_1691_14"/>
<feBlend mode="normal" in="SourceGraphic" in2="effect1_dropShadow_1691_14" result="shape"/>
</filter>
</defs>
</svg>
