<svg width="22" height="22" viewBox="0 0 22 22" fill="none" xmlns="http://www.w3.org/2000/svg">
<circle cx="11" cy="11" r="11" fill="#269962"/>
<path d="M10.25 16.5C10.25 16.9142 10.5858 17.25 11 17.25C11.4142 17.25 11.75 16.9142 11.75 16.5H11H10.25ZM11.5303 5.46967C11.2374 5.17678 10.7626 5.17678 10.4697 5.46967L5.6967 10.2426C5.40381 10.5355 5.40381 11.0104 5.6967 11.3033C5.98959 11.5962 6.46447 11.5962 6.75736 11.3033L11 7.06066L15.2426 11.3033C15.5355 11.5962 16.0104 11.5962 16.3033 11.3033C16.5962 11.0104 16.5962 10.5355 16.3033 10.2426L11.5303 5.46967ZM11 16.5H11.75V6H11H10.25V16.5H11Z" fill="white"/>
</svg>
