<svg width="116" height="116" viewBox="0 0 116 116" fill="none" xmlns="http://www.w3.org/2000/svg">
<path d="M58.9102 73.7197C75.9357 74.151 89.7684 87.4142 91.1074 104.199C88.9121 105.852 86.5887 107.344 84.1553 108.658C84.1953 108.068 84.2178 107.473 84.2178 106.873C84.2177 92.4234 72.5042 80.7092 58.0547 80.709C43.6051 80.7092 31.8907 92.4234 31.8906 106.873C31.8906 107.473 31.9121 108.068 31.9521 108.658C29.5187 107.344 27.1953 105.852 25 104.198C26.362 87.1334 40.6396 73.7092 58.0547 73.709L58.9102 73.7197ZM58.5898 25.0068C69.7897 25.2908 78.7812 34.4592 78.7812 45.7275L78.7754 46.2627C78.4914 57.4625 69.3229 66.454 58.0547 66.4541L57.5195 66.4482C46.4974 66.1689 37.6135 57.2847 37.334 46.2627L37.3271 45.7275C37.3271 34.2803 46.6075 25.0001 58.0547 25L58.5898 25.0068ZM58.0547 32C50.4734 32.0001 44.3271 38.1463 44.3271 45.7275C44.3273 53.3087 50.4735 59.454 58.0547 59.4541C65.6358 59.454 71.7811 53.3087 71.7812 45.7275C71.7812 38.1463 65.6359 32.0001 58.0547 32Z" fill="white"/>
<circle cx="58" cy="61" r="54.5" stroke="white"/>
</svg>
