<svg width="20" height="20" viewBox="0 0 20 20" fill="none" xmlns="http://www.w3.org/2000/svg">
  <!-- 종 상단 아치 -->
  <path d="M6 2C6 1.44772 6.44772 1 7 1H13C13.5523 1 14 1.44772 14 2V3C14 3.55228 13.5523 4 13 4H7C6.44772 4 6 3.55228 6 3V2Z" fill="#FFD700"/>
  
  <!-- 종 몸통 -->
  <path d="M4 4C4 3.44772 4.44772 3 5 3H15C15.5523 3 16 3.44772 16 4V14C16 14.5523 15.5523 15 15 15H5C4.44772 15 4 14.5523 4 14V4Z" fill="#FFD700"/>
  
  <!-- 종 하단 곡선 -->
  <path d="M6 14C6 13.4477 6.44772 13 7 13H13C13.5523 13 14 13.4477 14 14V15C14 15.5523 13.5523 16 13 16H7C6.44772 16 6 15.5523 6 15V14Z" fill="#FFD700"/>
  
  <!-- 종추 -->
  <circle cx="10" cy="17" r="1.5" fill="#FFD700"/>
</svg> 