<svg width="13" height="10" viewBox="0 0 13 10" fill="none" xmlns="http://www.w3.org/2000/svg">
<mask id="path-1-inside-1_224_19" fill="white">
<path d="M6.0438 1.73233C7.25841 -0.492287 9.67708 -0.111018 10.5008 0.365143C12.9002 1.52132 12.0008 4.05864 11.5008 5.18253C10.3265 7.82201 7.45947 9.44492 6.08775 9.96475V9.99991C6.0729 9.99454 6.05807 9.98799 6.04283 9.98233C6.02855 9.98761 6.01476 9.9939 6.00083 9.99893V9.96573C4.62926 9.44603 1.76223 7.82305 0.587748 5.1835C0.0877589 4.05957 -0.812052 1.52223 1.58775 0.366119C2.41144 -0.109949 4.82904 -0.491061 6.0438 1.73233Z"/>
</mask>
<path d="M6.0438 1.73233C7.25841 -0.492287 9.67708 -0.111018 10.5008 0.365143C12.9002 1.52132 12.0008 4.05864 11.5008 5.18253C10.3265 7.82201 7.45947 9.44492 6.08775 9.96475V9.99991C6.0729 9.99454 6.05807 9.98799 6.04283 9.98233C6.02855 9.98761 6.01476 9.9939 6.00083 9.99893V9.96573C4.62926 9.44603 1.76223 7.82305 0.587748 5.1835C0.0877589 4.05957 -0.812052 1.52223 1.58775 0.366119C2.41144 -0.109949 4.82904 -0.491061 6.0438 1.73233Z" fill="black"/>
<path d="M6.0438 1.73233L5.42951 2.06795L6.04401 3.19268L6.65819 2.06778L6.0438 1.73233ZM10.5008 0.365143L10.1505 0.97118L10.1733 0.984338L10.197 0.995751L10.5008 0.365143ZM11.5008 5.18253L12.1404 5.46707L12.1404 5.46704L11.5008 5.18253ZM6.08775 9.96475L5.83969 9.31018L5.38775 9.48145V9.96475H6.08775ZM6.08775 9.99991L5.84988 10.6583L6.78775 10.9971V9.99991H6.08775ZM6.04283 9.98233L6.28637 9.32607L6.04316 9.2358L5.79986 9.32585L6.04283 9.98233ZM6.00083 9.99893H5.30083V10.9966L6.23897 10.6572L6.00083 9.99893ZM6.00083 9.96573H6.70083V9.4824L6.24886 9.31114L6.00083 9.96573ZM0.587748 5.1835L-0.0518226 5.46802L-0.0517992 5.46807L0.587748 5.1835ZM1.58775 0.366119L1.89156 0.996754L1.91525 0.985337L1.93803 0.972175L1.58775 0.366119ZM6.0438 1.73233L6.65819 2.06778C7.14735 1.17186 7.85025 0.824643 8.51825 0.728857C9.22734 0.62718 9.87888 0.814161 10.1505 0.97118L10.5008 0.365143L10.8511 -0.240895C10.299 -0.560036 9.32936 -0.80177 8.31953 -0.656968C7.2686 -0.506274 6.15486 0.0681863 5.42941 1.39688L6.0438 1.73233ZM10.5008 0.365143L10.197 0.995751C10.6858 1.23129 10.9685 1.51649 11.1359 1.80183C11.3062 2.09206 11.3831 2.42709 11.3882 2.79551C11.3986 3.55532 11.1033 4.35396 10.8613 4.89801L11.5008 5.18253L12.1404 5.46704C12.3983 4.88721 12.8028 3.85524 12.788 2.77637C12.7805 2.22546 12.6637 1.63914 12.3434 1.09332C12.0202 0.542617 11.5156 0.0770888 10.8047 -0.265465L10.5008 0.365143ZM11.5008 5.18253L10.8613 4.89798C10.3365 6.07738 9.4189 7.05761 8.44001 7.81483C7.46236 8.5711 6.46397 9.0736 5.83969 9.31018L6.08775 9.96475L6.33581 10.6193C7.08325 10.3361 8.20423 9.7672 9.29661 8.92218C10.3878 8.07812 11.4908 6.92715 12.1404 5.46707L11.5008 5.18253ZM6.08775 9.96475H5.38775V9.99991H6.08775H6.78775V9.96475H6.08775ZM6.08775 9.99991L6.32561 9.34156C6.32957 9.34299 6.33204 9.34396 6.33217 9.34401C6.33228 9.34406 6.33204 9.34396 6.33124 9.34364C6.3304 9.3433 6.32933 9.34288 6.32759 9.34217C6.32484 9.34106 6.31861 9.33854 6.31232 9.33604C6.30561 9.33338 6.29667 9.32988 6.28637 9.32607L6.04283 9.98233L5.79928 10.6386C5.7956 10.6372 5.79304 10.6361 5.80328 10.6403C5.80983 10.6429 5.82858 10.6506 5.84988 10.6583L6.08775 9.99991ZM6.04283 9.98233L5.79986 9.32585C5.78854 9.33004 5.77882 9.33387 5.77171 9.33672C5.76503 9.3394 5.75859 9.34205 5.75605 9.34309C5.75243 9.34457 5.75228 9.34463 5.75289 9.34439C5.75377 9.34404 5.75737 9.34261 5.76269 9.34068L6.00083 9.99893L6.23897 10.6572C6.25126 10.6527 6.26181 10.6486 6.26963 10.6455C6.27719 10.6425 6.28399 10.6397 6.28735 10.6384C6.28945 10.6375 6.29047 10.6371 6.29155 10.6366C6.29248 10.6363 6.29277 10.6361 6.29269 10.6362C6.29261 10.6362 6.28997 10.6373 6.28579 10.6388L6.04283 9.98233ZM6.00083 9.99893H6.70083V9.96573H6.00083H5.30083V9.99893H6.00083ZM6.00083 9.96573L6.24886 9.31114C5.62469 9.07464 4.62634 8.57216 3.64868 7.81588C2.6698 7.05865 1.7521 6.07838 1.22729 4.89893L0.587748 5.1835L-0.0517992 5.46807C0.597876 6.92817 1.70093 8.07916 2.79208 8.92323C3.88445 9.76826 5.0054 10.3371 5.75281 10.6203L6.00083 9.96573ZM0.587748 5.1835L1.22732 4.89899C0.985257 4.35485 0.689912 3.55621 0.700262 2.79641C0.705281 2.428 0.782202 2.09299 0.952496 1.8028C1.11993 1.51748 1.40265 1.23228 1.89156 0.996754L1.58775 0.366119L1.28394 -0.264515C0.572942 0.0780087 0.0682197 0.543519 -0.254954 1.09423C-0.575264 1.64007 -0.692103 2.22641 -0.699608 2.77734C-0.714305 3.85622 -0.30975 4.88822 -0.0518226 5.46802L0.587748 5.1835ZM1.58775 0.366119L1.93803 0.972175C2.20968 0.81517 2.86097 0.62826 3.56982 0.729848C4.2376 0.825552 4.94031 1.17256 5.42951 2.06795L6.0438 1.73233L6.6581 1.39671C5.93253 0.0687072 4.81906 -0.505422 3.76843 -0.655992C2.75886 -0.800679 1.78951 -0.558999 1.23747 -0.239936L1.58775 0.366119Z" fill="black" mask="url(#path-1-inside-1_224_19)"/>
</svg>
