<svg width="24" height="24" viewBox="0 0 24 24" fill="none" xmlns="http://www.w3.org/2000/svg">
<mask id="path-1-inside-1_224_23" fill="white">
<path d="M12 0C18.6274 0 24 5.37258 24 12C24 17.8053 19.8775 22.6467 14.4004 23.7588V24H0V9.59961H0.241211C1.35329 4.12253 6.19471 0 12 0Z"/>
</mask>
<path d="M12 0C18.6274 0 24 5.37258 24 12C24 17.8053 19.8775 22.6467 14.4004 23.7588V24H0V9.59961H0.241211C1.35329 4.12253 6.19471 0 12 0Z" fill="white"/>
<path d="M14.4004 23.7588L14.1019 22.2888L12.9004 22.5327V23.7588H14.4004ZM14.4004 24V25.5H15.9004V24H14.4004ZM0 24H-1.5V25.5H0V24ZM0 9.59961V8.09961H-1.5V9.59961H0ZM0.241211 9.59961V11.0996H1.46725L1.71122 9.89808L0.241211 9.59961ZM12 0V1.5C17.799 1.5 22.5 6.20101 22.5 12H24H25.5C25.5 4.54416 19.4558 -1.5 12 -1.5V0ZM24 12H22.5C22.5 17.0777 18.8939 21.3158 14.1019 22.2888L14.4004 23.7588L14.6989 25.2288C20.861 23.9776 25.5 18.5329 25.5 12H24ZM14.4004 23.7588H12.9004V24H14.4004H15.9004V23.7588H14.4004ZM14.4004 24V22.5H0V24V25.5H14.4004V24ZM0 24H1.5V9.59961H0H-1.5V24H0ZM0 9.59961V11.0996H0.241211V9.59961V8.09961H0V9.59961ZM0.241211 9.59961L1.71122 9.89808C2.6842 5.10607 6.92232 1.5 12 1.5V0V-1.5C5.46711 -1.5 0.0223863 3.13899 -1.22879 9.30114L0.241211 9.59961Z" fill="#797979" mask="url(#path-1-inside-1_224_23)"/>
</svg>
