<svg width="13" height="10" viewBox="0 0 13 10" fill="none" xmlns="http://www.w3.org/2000/svg">
<mask id="path-1-inside-1_224_92" fill="white">
<path d="M6.04395 1.73242C7.25856 -0.492196 9.67722 -0.110926 10.501 0.365234C12.9004 1.52141 12.0009 4.05873 11.501 5.18262C10.3266 7.8221 7.45961 9.44501 6.08789 9.96484V10C6.07305 9.99464 6.05821 9.98808 6.04297 9.98242C6.02869 9.98771 6.0149 9.99399 6.00098 9.99902V9.96582C4.62941 9.44612 1.76237 7.82314 0.587891 5.18359C0.0879017 4.05966 -0.811909 1.52232 1.58789 0.366211C2.41158 -0.109857 4.82918 -0.490969 6.04395 1.73242Z"/>
</mask>
<path d="M6.04395 1.73242L5.42965 2.06805L6.04415 3.19277L6.65833 2.06787L6.04395 1.73242ZM10.501 0.365234L10.1507 0.971272L10.1734 0.984429L10.1971 0.995842L10.501 0.365234ZM11.501 5.18262L12.1405 5.46716L12.1405 5.46713L11.501 5.18262ZM6.08789 9.96484L5.83983 9.31027L5.38789 9.48154V9.96484H6.08789ZM6.08789 10L5.85003 10.6583L6.78789 10.9972V10H6.08789ZM6.04297 9.98242L6.28652 9.32616L6.0433 9.2359L5.8 9.32594L6.04297 9.98242ZM6.00098 9.99902H5.30098V10.9967L6.23912 10.6573L6.00098 9.99902ZM6.00098 9.96582H6.70098V9.48249L6.24901 9.31124L6.00098 9.96582ZM0.587891 5.18359L-0.0516798 5.46811L-0.0516564 5.46816L0.587891 5.18359ZM1.58789 0.366211L1.8917 0.996845L1.9154 0.985429L1.93817 0.972266L1.58789 0.366211ZM6.04395 1.73242L6.65833 2.06787C7.1475 1.17195 7.85039 0.824734 8.51839 0.728949C9.22748 0.627271 9.87902 0.814252 10.1507 0.971272L10.501 0.365234L10.8513 -0.240803C10.2992 -0.559944 9.32951 -0.801678 8.31967 -0.656876C7.26875 -0.506182 6.15501 0.0682779 5.42956 1.39697L6.04395 1.73242ZM10.501 0.365234L10.1971 0.995842C10.6859 1.23138 10.9686 1.51658 11.136 1.80192C11.3063 2.09215 11.3833 2.42718 11.3883 2.79561C11.3987 3.55541 11.1034 4.35405 10.8614 4.8981L11.501 5.18262L12.1405 5.46713C12.3985 4.8873 12.8029 3.85533 12.7882 2.77647C12.7806 2.22555 12.6638 1.63923 12.3435 1.09341C12.0204 0.542709 11.5157 0.0771804 10.8048 -0.265374L10.501 0.365234ZM11.501 5.18262L10.8614 4.89807C10.3367 6.07747 9.41904 7.0577 8.44015 7.81492C7.46251 8.57119 6.46411 9.07369 5.83983 9.31027L6.08789 9.96484L6.33595 10.6194C7.0834 10.3362 8.20438 9.76729 9.29676 8.92228C10.3879 8.07822 11.4909 6.92724 12.1405 5.46716L11.501 5.18262ZM6.08789 9.96484H5.38789V10H6.08789H6.78789V9.96484H6.08789ZM6.08789 10L6.32575 9.34165C6.32971 9.34308 6.33218 9.34405 6.33231 9.3441C6.33243 9.34415 6.33218 9.34405 6.33138 9.34373C6.33054 9.3434 6.32948 9.34297 6.32774 9.34227C6.32498 9.34115 6.31875 9.33863 6.31246 9.33613C6.30575 9.33347 6.29681 9.32998 6.28652 9.32616L6.04297 9.98242L5.79942 10.6387C5.79575 10.6373 5.79318 10.6362 5.80342 10.6404C5.80997 10.643 5.82872 10.6507 5.85003 10.6583L6.08789 10ZM6.04297 9.98242L5.8 9.32594C5.78869 9.33013 5.77897 9.33396 5.77185 9.33681C5.76517 9.33949 5.75873 9.34214 5.75619 9.34318C5.75258 9.34466 5.75242 9.34472 5.75303 9.34448C5.75391 9.34413 5.75751 9.3427 5.76284 9.34078L6.00098 9.99902L6.23912 10.6573C6.2514 10.6528 6.26195 10.6487 6.26978 10.6456C6.27733 10.6426 6.28413 10.6398 6.28749 10.6384C6.28959 10.6376 6.29061 10.6372 6.29169 10.6367C6.29263 10.6363 6.29291 10.6362 6.29283 10.6363C6.29276 10.6363 6.29011 10.6374 6.28593 10.6389L6.04297 9.98242ZM6.00098 9.99902H6.70098V9.96582H6.00098H5.30098V9.99902H6.00098ZM6.00098 9.96582L6.24901 9.31124C5.62483 9.07473 4.62648 8.57225 3.64883 7.81597C2.66994 7.05874 1.75224 6.07848 1.22744 4.89902L0.587891 5.18359L-0.0516564 5.46816C0.598019 6.92826 1.70108 8.07926 2.79222 8.92332C3.8846 9.76835 5.00555 10.3372 5.75295 10.6204L6.00098 9.96582ZM0.587891 5.18359L1.22746 4.89908C0.9854 4.35494 0.690055 3.5563 0.700405 2.7965C0.705423 2.42809 0.782345 2.09308 0.952639 1.80289C1.12007 1.51757 1.4028 1.23238 1.8917 0.996845L1.58789 0.366211L1.28408 -0.264423C0.573085 0.0781003 0.0683625 0.543611 -0.254811 1.09433C-0.575122 1.64016 -0.69196 2.2265 -0.699465 2.77743C-0.714162 3.85631 -0.309608 4.88831 -0.0516798 5.46811L0.587891 5.18359ZM1.58789 0.366211L1.93817 0.972266C2.20982 0.815262 2.86111 0.628351 3.56996 0.729939C4.23774 0.825643 4.94045 1.17265 5.42965 2.06805L6.04395 1.73242L6.65824 1.3968C5.93268 0.0687988 4.8192 -0.50533 3.76857 -0.655901C2.759 -0.800587 1.78965 -0.558908 1.23761 -0.239844L1.58789 0.366211Z" fill="#797979" mask="url(#path-1-inside-1_224_92)"/>
</svg>
