<svg width="11" height="11" viewBox="0 0 11 11" fill="none" xmlns="http://www.w3.org/2000/svg">
<path d="M6.24902 0.249023C6.58096 -0.0828713 7.11826 -0.0828719 7.4502 0.249023L10.7432 3.54199C11.075 3.87393 11.075 4.41125 10.7432 4.74316L4.74316 10.7432C4.58378 10.9025 4.36796 10.9922 4.14258 10.9922H0.849609C0.380201 10.9922 5.51512e-05 10.612 0 10.1426V6.84961C2.00203e-05 6.62423 0.0896672 6.40841 0.249023 6.24902L6.24902 0.249023ZM0.743164 6.74316C0.715083 6.77127 0.699239 6.80988 0.699219 6.84961V10.1426C0.699274 10.2254 0.766801 10.293 0.849609 10.293H4.14258C4.18231 10.2929 4.22091 10.2771 4.24902 10.249L8.35547 6.14258L4.84961 2.63672L0.743164 6.74316ZM6.95605 0.743164C6.89749 0.684636 6.80173 0.684636 6.74316 0.743164L5.34375 2.14258L8.84961 5.64844L10.249 4.24902C10.3075 4.19047 10.3075 4.09471 10.249 4.03613L6.95605 0.743164Z" fill="#787878"/>
</svg>
