<svg width="36" height="36" viewBox="0 0 36 36" fill="none" xmlns="http://www.w3.org/2000/svg">
<g filter="url(#filter0_d_1183_6)">
<circle cx="18" cy="18" r="14" fill="white"/>
</g>
<path d="M24 19C24.5523 19 25 18.5523 25 18C25 17.4477 24.5523 17 24 17V19ZM11.2929 17.2929C10.9024 17.6834 10.9024 18.3166 11.2929 18.7071L17.6569 25.0711C18.0474 25.4616 18.6805 25.4616 19.0711 25.0711C19.4616 24.6805 19.4616 24.0474 19.0711 23.6569L13.4142 18L19.0711 12.3431C19.4616 11.9526 19.4616 11.3195 19.0711 10.9289C18.6805 10.5384 18.0474 10.5384 17.6569 10.9289L11.2929 17.2929ZM24 18V17H12V18V19H24V18Z" fill="#2C8C7D"/>
<defs>
<filter id="filter0_d_1183_6" x="0" y="0" width="36" height="36" filterUnits="userSpaceOnUse" color-interpolation-filters="sRGB">
<feFlood flood-opacity="0" result="BackgroundImageFix"/>
<feColorMatrix in="SourceAlpha" type="matrix" values="0 0 0 0 0 0 0 0 0 0 0 0 0 0 0 0 0 0 127 0" result="hardAlpha"/>
<feOffset/>
<feGaussianBlur stdDeviation="2"/>
<feComposite in2="hardAlpha" operator="out"/>
<feColorMatrix type="matrix" values="0 0 0 0 0.176471 0 0 0 0 0.529412 0 0 0 0 0.47451 0 0 0 0.5 0"/>
<feBlend mode="normal" in2="BackgroundImageFix" result="effect1_dropShadow_1183_6"/>
<feBlend mode="normal" in="SourceGraphic" in2="effect1_dropShadow_1183_6" result="shape"/>
</filter>
</defs>
</svg>
