<svg width="26" height="25" viewBox="0 0 26 25" fill="none" xmlns="http://www.w3.org/2000/svg">
<mask id="path-1-inside-1_1041_493" fill="white">
<path d="M16.458 0.000244141C21.6156 0.000415923 25.7967 4.18147 25.7969 9.33911C25.7969 11.6815 24.9323 13.8208 23.5078 15.4602L23.1631 22.679C23.112 23.7431 22.025 24.4609 21.5762 23.7268L18.3682 18.4817C17.7515 18.6099 17.1127 18.6789 16.458 18.679H10.1357C4.978 18.6788 0.796875 14.4969 0.796875 9.33911C0.797047 4.18147 4.97811 0.000415923 10.1357 0.000244141H16.458Z"/>
</mask>
<path d="M16.458 0.000244141L16.4581 -1.49976H16.458V0.000244141ZM25.7969 9.33911H27.2969V9.33906L25.7969 9.33911ZM23.5078 15.4602L22.3755 14.4763L22.0343 14.869L22.0095 15.3887L23.5078 15.4602ZM23.1631 22.679L24.6614 22.7508L24.6614 22.7505L23.1631 22.679ZM21.5762 23.7268L22.8559 22.9443L22.8558 22.9442L21.5762 23.7268ZM18.3682 18.4817L19.6478 17.699L19.0968 16.7981L18.0628 17.0131L18.3682 18.4817ZM16.458 18.679V20.179H16.4581L16.458 18.679ZM10.1357 18.679L10.1357 20.179H10.1357V18.679ZM0.796875 9.33911L-0.703125 9.33906V9.33911H0.796875ZM10.1357 0.000244141V-1.49976H10.1357L10.1357 0.000244141ZM16.458 0.000244141L16.458 1.50024C20.7872 1.50039 24.2967 5.00991 24.2969 9.33916L25.7969 9.33911L27.2969 9.33906C27.2967 3.35304 22.4441 -1.49956 16.4581 -1.49976L16.458 0.000244141ZM25.7969 9.33911H24.2969C24.2969 11.3051 23.5728 13.0985 22.3755 14.4763L23.5078 15.4602L24.6401 16.4441C26.2918 14.5431 27.2969 12.0578 27.2969 9.33911H25.7969ZM23.5078 15.4602L22.0095 15.3887L21.6648 22.6074L23.1631 22.679L24.6614 22.7505L25.0061 15.5318L23.5078 15.4602ZM23.1631 22.679L21.6648 22.6071C21.6619 22.6686 21.6212 22.6725 21.6923 22.6255C21.7319 22.5993 21.9024 22.5002 22.1799 22.5325C22.3248 22.5494 22.4725 22.6009 22.6035 22.6884C22.7326 22.7745 22.8122 22.8729 22.8559 22.9443L21.5762 23.7268L20.2964 24.5093C20.6263 25.0487 21.1673 25.4348 21.8328 25.5124C22.4419 25.5833 22.9715 25.3759 23.3453 25.129C24.0849 24.6406 24.6133 23.7535 24.6614 22.7508L23.1631 22.679ZM21.5762 23.7268L22.8558 22.9442L19.6478 17.699L18.3682 18.4817L17.0885 19.2643L20.2965 24.5095L21.5762 23.7268ZM18.3682 18.4817L18.0628 17.0131C17.5434 17.1211 17.007 17.1789 16.458 17.179L16.458 18.679L16.4581 20.179C17.2185 20.1789 17.9595 20.0987 18.6735 19.9503L18.3682 18.4817ZM16.458 18.679V17.179H10.1357V18.679V20.179H16.458V18.679ZM10.1357 18.679L10.1358 17.179C5.80659 17.1788 2.29688 13.6686 2.29688 9.33911H0.796875H-0.703125C-0.703125 15.3252 4.14941 20.1788 10.1357 20.179L10.1357 18.679ZM0.796875 9.33911L2.29688 9.33916C2.29702 5.00991 5.80654 1.50039 10.1358 1.50024L10.1357 0.000244141L10.1357 -1.49976C4.14967 -1.49956 -0.702926 3.35304 -0.703125 9.33906L0.796875 9.33911ZM10.1357 0.000244141V1.50024H16.458V0.000244141V-1.49976H10.1357V0.000244141Z" fill="#269962" mask="url(#path-1-inside-1_1041_493)"/>
<circle cx="7.29688" cy="9.50024" r="1.5" fill="#269962"/>
<circle cx="13.2969" cy="9.50024" r="1.5" fill="#269962"/>
<circle cx="19.2969" cy="9.50024" r="1.5" fill="#269962"/>
</svg>
