<svg width="26" height="25" viewBox="0 0 26 25" fill="none" xmlns="http://www.w3.org/2000/svg">
<mask id="path-1-inside-1_1041_36" fill="white">
<path d="M16.458 0C21.6156 0.000171622 25.7967 4.18123 25.7969 9.33887C25.7969 11.6812 24.9323 13.8206 23.5078 15.46L23.1631 22.6787C23.112 23.7429 22.025 24.4607 21.5762 23.7266L18.3682 18.4814C17.7515 18.6097 17.1127 18.6787 16.458 18.6787H10.1357C4.978 18.6785 0.796875 14.4967 0.796875 9.33887C0.797047 4.18123 4.97811 0.000171626 10.1357 0H16.458Z"/>
</mask>
<path d="M16.458 0L16.4581 -1.5H16.458V0ZM25.7969 9.33887L27.2969 9.33887L27.2969 9.33882L25.7969 9.33887ZM23.5078 15.46L22.3755 14.4761L22.0343 14.8688L22.0095 15.3884L23.5078 15.46ZM23.1631 22.6787L24.6614 22.7506L24.6614 22.7503L23.1631 22.6787ZM21.5762 23.7266L22.8559 22.9441L22.8558 22.9439L21.5762 23.7266ZM18.3682 18.4814L19.6478 17.6988L19.0968 16.7979L18.0628 17.0128L18.3682 18.4814ZM16.458 18.6787L16.458 20.1787L16.4581 20.1787L16.458 18.6787ZM10.1357 18.6787L10.1357 20.1787H10.1357V18.6787ZM0.796875 9.33887L-0.703125 9.33882V9.33887H0.796875ZM10.1357 0L10.1357 -1.5L10.1357 -1.5L10.1357 0ZM16.458 0L16.458 1.5C20.7872 1.50014 24.2967 5.00967 24.2969 9.33892L25.7969 9.33887L27.2969 9.33882C27.2967 3.35279 22.4441 -1.4998 16.4581 -1.5L16.458 0ZM25.7969 9.33887H24.2969C24.2969 11.3049 23.5728 13.0982 22.3755 14.4761L23.5078 15.46L24.6401 16.4438C26.2918 14.5429 27.2969 12.0576 27.2969 9.33887H25.7969ZM23.5078 15.46L22.0095 15.3884L21.6648 22.6072L23.1631 22.6787L24.6614 22.7503L25.0061 15.5315L23.5078 15.46ZM23.1631 22.6787L21.6648 22.6069C21.6619 22.6683 21.6212 22.6722 21.6923 22.6253C21.7319 22.5991 21.9024 22.4999 22.1799 22.5323C22.3248 22.5491 22.4725 22.6007 22.6036 22.6881C22.7326 22.7742 22.8122 22.8726 22.8559 22.9441L21.5762 23.7266L20.2964 24.5091C20.6263 25.0484 21.1673 25.4346 21.8328 25.5121C22.4419 25.5831 22.9715 25.3756 23.3453 25.1287C24.0849 24.6404 24.6133 23.7533 24.6614 22.7506L23.1631 22.6787ZM21.5762 23.7266L22.8558 22.9439L19.6478 17.6988L18.3682 18.4814L17.0885 19.2641L20.2965 24.5092L21.5762 23.7266ZM18.3682 18.4814L18.0628 17.0128C17.5434 17.1208 17.007 17.1787 16.458 17.1787L16.458 18.6787L16.4581 20.1787C17.2185 20.1787 17.9595 20.0985 18.6735 19.95L18.3682 18.4814ZM16.458 18.6787V17.1787H10.1357V18.6787V20.1787H16.458V18.6787ZM10.1357 18.6787L10.1358 17.1787C5.80659 17.1786 2.29688 13.6684 2.29688 9.33887H0.796875H-0.703125C-0.703125 15.3249 4.14941 20.1785 10.1357 20.1787L10.1357 18.6787ZM0.796875 9.33887L2.29687 9.33892C2.29702 5.00967 5.80654 1.50014 10.1358 1.5L10.1357 0L10.1357 -1.5C4.14967 -1.4998 -0.702926 3.35279 -0.703125 9.33882L0.796875 9.33887ZM10.1357 0V1.5H16.458V0V-1.5H10.1357V0Z" fill="#C0C0C0" mask="url(#path-1-inside-1_1041_36)"/>
<circle cx="7.29688" cy="9.5" r="1.5" fill="#C0C0C0"/>
<circle cx="13.2969" cy="9.5" r="1.5" fill="#C0C0C0"/>
<circle cx="19.2969" cy="9.5" r="1.5" fill="#C0C0C0"/>
</svg>
