<svg width="26" height="16" viewBox="0 0 26 16" fill="none" xmlns="http://www.w3.org/2000/svg">
<path d="M10.4726 0C12.933 0.000170182 15.0541 1.44823 16.0332 3.53809C16.7318 3.12557 17.5469 2.88867 18.417 2.88867C21.0094 2.88885 23.1111 4.99059 23.1113 7.58301C23.1113 8.2229 22.9818 8.83281 22.75 9.38867C24.5448 9.38867 25.9999 10.8438 26 12.6387C25.9999 14.3117 24.7356 15.6888 23.1103 15.8682V15.8887H2.19235C0.875339 15.0572 0.000121359 13.5895 -3.05176e-05 11.917C-3.05176e-05 9.41252 1.96119 7.36582 4.43161 7.22949C4.36812 6.87549 4.33298 6.51094 4.33298 6.13867C4.33309 2.74836 7.08228 0 10.4726 0Z" fill="white"/>
</svg>
