<svg width="26" height="19" viewBox="0 0 26 19" fill="none" xmlns="http://www.w3.org/2000/svg">
<path d="M12.7891 5C14.8542 5 16.6343 6.21562 17.4561 7.96973C18.0425 7.62337 18.7266 7.4248 19.457 7.4248C21.6328 7.42492 23.3963 9.18849 23.3965 11.3643C23.3965 11.9013 23.2884 12.4133 23.0938 12.8799C24.6001 12.8799 25.8212 14.1011 25.8213 15.6074C25.8212 17.0111 24.7609 18.1663 23.3975 18.3174V18.335H5.84082C4.7352 17.6373 4.0002 16.4058 4 15.002C4 12.9002 5.6457 11.1821 7.71875 11.0674C7.70612 10.9969 7.69537 10.9259 7.68555 10.8545C9.44944 10.7852 10.8583 9.33457 10.8584 7.55371C10.8584 6.84996 10.6377 6.19809 10.2627 5.66211C11.0093 5.24112 11.8709 5.00003 12.7891 5ZM7.55371 11.8027C7.29302 11.8027 7.08112 12.0137 7.08105 12.2744V14.6348C7.08105 14.8955 7.29298 15.1074 7.55371 15.1074C7.81435 15.1073 8.02539 14.8954 8.02539 14.6348V12.2744C8.02533 12.0138 7.81432 11.8028 7.55371 11.8027ZM3.91016 10.5928C4.09276 10.4067 4.39201 10.4043 4.57812 10.5869C4.76385 10.7696 4.76646 11.0679 4.58398 11.2539L2.93066 12.9385C2.74811 13.1245 2.44979 13.1278 2.26367 12.9453C2.07756 12.7627 2.07423 12.4635 2.25684 12.2773L3.91016 10.5928ZM11.2236 10.5605C11.0394 10.376 10.7402 10.3763 10.5557 10.5605C10.3714 10.7448 10.3715 11.0431 10.5557 11.2275L12.2227 12.8984C12.4069 13.0829 12.7061 13.0827 12.8906 12.8984C13.075 12.7143 13.0755 12.416 12.8916 12.2314L11.2236 10.5605ZM7.55371 4.24902C8.67503 4.24907 9.66522 4.8081 10.2627 5.66211C8.69554 6.54578 7.63672 8.22506 7.63672 10.1523C7.63673 10.3905 7.65398 10.6249 7.68555 10.8545C7.6418 10.8562 7.59788 10.8584 7.55371 10.8584C5.72863 10.8584 4.24909 9.37878 4.24902 7.55371C4.24902 5.72859 5.72859 4.24902 7.55371 4.24902ZM2.83301 7.08105C3.09355 7.08128 3.30469 7.29312 3.30469 7.55371C3.30462 7.81424 3.0935 8.02516 2.83301 8.02539H0.47168C0.211186 8.02516 7.11227e-05 7.81424 0 7.55371C1.13908e-08 7.29312 0.211142 7.08128 0.47168 7.08105H2.83301ZM12.2744 7.08105C12.0137 7.08109 11.8027 7.293 11.8027 7.55371C11.8028 7.81436 12.0138 8.02536 12.2744 8.02539H14.6348C14.8955 8.02539 15.1074 7.81438 15.1074 7.55371C15.1074 7.29298 14.8955 7.08105 14.6348 7.08105H12.2744ZM2.21582 2.20801C2.40031 2.0238 2.69956 2.02453 2.88379 2.20898L4.55176 3.87891C4.7359 4.06332 4.73599 4.36262 4.55176 4.54688C4.36735 4.73101 4.06804 4.7311 3.88379 4.54688L2.21582 2.87598C2.03164 2.69147 2.03134 2.39222 2.21582 2.20801ZM12.1758 2.16797C12.3584 1.98186 12.6576 1.97951 12.8438 2.16211C13.0297 2.34473 13.0322 2.64305 12.8496 2.8291L11.1973 4.51465C11.0147 4.70076 10.7154 4.70311 10.5293 4.52051C10.3434 4.33805 10.3403 4.03963 10.5225 3.85352L12.1758 2.16797ZM7.55371 0C7.81422 0.000104009 8.02516 0.211204 8.02539 0.47168V2.83301C8.02516 3.09348 7.81421 3.30458 7.55371 3.30469C7.29312 3.30469 7.08128 3.09355 7.08105 2.83301V0.47168C7.08128 0.21114 7.29312 0 7.55371 0Z" fill="white"/>
</svg>
