<svg width="22" height="25" viewBox="0 0 22 25" fill="none" xmlns="http://www.w3.org/2000/svg">
<path d="M8.8613 0.230713C10.9433 0.230785 12.7379 1.45634 13.5664 3.22485C14.1575 2.87576 14.8468 2.6751 15.583 2.67505C17.7768 2.67505 19.5556 4.45391 19.5556 6.64771C19.5556 7.18904 19.4461 7.70479 19.25 8.17505C20.7687 8.17505 21.9999 9.40632 22 10.925C21.9999 12.3404 20.9304 13.5044 19.5556 13.6565V13.675H1.85641C0.741346 12.9715 7.33453e-06 11.7294 -3.05176e-05 10.3137C0.00014174 8.19465 1.65965 6.46317 3.74997 6.3479C3.69626 6.04839 3.66697 5.74002 3.66696 5.42505C3.66703 2.55629 5.99253 0.230713 8.8613 0.230713Z" fill="white"/>
<path d="M19.5006 18.8269L19.4576 18.804C19.4659 18.929 19.4645 19.0581 19.4484 19.1908C19.2766 20.6067 17.7108 21.3835 16.4797 20.6633C15.2486 19.943 15.1577 18.1973 16.3077 17.3537C16.3652 17.3116 16.4244 17.2742 16.4835 17.2392L16.4742 17.2341L19.3397 15.4615L19.5006 18.8269Z" fill="white"/>
<path d="M5.96218 18.8269L5.91913 18.804C5.92742 18.929 5.92606 19.0581 5.90999 19.1908C5.73817 20.6067 4.1723 21.3835 2.94123 20.6633C1.71017 19.943 1.61923 18.1973 2.76928 17.3537C2.8267 17.3116 2.88591 17.2742 2.945 17.2392L2.93576 17.2341L5.80129 15.4615L5.96218 18.8269Z" fill="white"/>
<path d="M12.3538 14.6152H9.30766L7.61536 19.5383H10.323L8.29228 24.7691L14.3846 17.3845H11.3384L12.3538 14.6152Z" fill="white"/>
</svg>
