<svg width="24" height="25" viewBox="0 0 24 25" fill="none" xmlns="http://www.w3.org/2000/svg">
<path d="M1.38898 8.84844L1.84725 9.44215L1.38898 8.84844ZM22.4079 8.84844L21.9496 9.44215L22.4079 8.84844ZM22.7969 9.64006H22.0469V23.2024H22.7969H23.5469V9.64006H22.7969ZM21.7969 24.2024V23.4524H17.2578V24.2024V24.9524H21.7969V24.2024ZM16.2578 23.2024H17.0078V15.4622H16.2578H15.5078V23.2024H16.2578ZM15.2578 14.4622V13.7122H8.53906V14.4622V15.2122H15.2578V14.4622ZM7.53906 15.4622H6.78906V23.2024H7.53906H8.28906V15.4622H7.53906ZM6.53906 24.2024V23.4524H2V24.2024V24.9524H6.53906V24.2024ZM1 23.2024H1.75V9.64006H1H0.25V23.2024H1ZM1.38898 8.84844L1.84725 9.44215L11.7457 1.80191L11.2874 1.2082L10.8292 0.614485L0.930716 8.25473L1.38898 8.84844ZM12.5095 1.2082L12.0512 1.80191L21.9496 9.44215L22.4079 8.84844L22.8662 8.25473L12.9677 0.614484L12.5095 1.2082ZM11.2874 1.2082L11.7457 1.80191C11.8357 1.73245 11.9612 1.73245 12.0512 1.80191L12.5095 1.2082L12.9677 0.614484C12.3378 0.128254 11.4591 0.128255 10.8292 0.614485L11.2874 1.2082ZM1 9.64006H1.75C1.75 9.56258 1.78592 9.48949 1.84725 9.44215L1.38898 8.84844L0.930716 8.25473C0.501419 8.58609 0.25 9.09775 0.25 9.64006H1ZM2 24.2024V23.4524C1.86193 23.4524 1.75 23.3405 1.75 23.2024H1H0.25C0.25 24.1689 1.0335 24.9524 2 24.9524V24.2024ZM7.53906 23.2024H6.78906C6.78906 23.3405 6.67713 23.4524 6.53906 23.4524V24.2024V24.9524C7.50556 24.9524 8.28906 24.1689 8.28906 23.2024H7.53906ZM8.53906 14.4622V13.7122C7.57256 13.7122 6.78906 14.4957 6.78906 15.4622H7.53906H8.28906C8.28906 15.3241 8.40099 15.2122 8.53906 15.2122V14.4622ZM16.2578 15.4622H17.0078C17.0078 14.4957 16.2243 13.7122 15.2578 13.7122V14.4622V15.2122C15.3959 15.2122 15.5078 15.3241 15.5078 15.4622H16.2578ZM17.2578 24.2024V23.4524C17.1197 23.4524 17.0078 23.3405 17.0078 23.2024H16.2578H15.5078C15.5078 24.1689 16.2913 24.9524 17.2578 24.9524V24.2024ZM22.7969 23.2024H22.0469C22.0469 23.3405 21.9349 23.4524 21.7969 23.4524V24.2024V24.9524C22.7634 24.9524 23.5469 24.1689 23.5469 23.2024H22.7969ZM22.7969 9.64006H23.5469C23.5469 9.09775 23.2955 8.58609 22.8662 8.25473L22.4079 8.84844L21.9496 9.44215C22.011 9.48949 22.0469 9.56259 22.0469 9.64006H22.7969Z" fill="#269962"/>
</svg>
