<svg width="24" height="25" viewBox="0 0 24 25" fill="none" xmlns="http://www.w3.org/2000/svg">
<path d="M1.38898 8.84869L1.84725 9.4424L1.38898 8.84869ZM22.4079 8.84869L21.9496 9.4424L22.4079 8.84869ZM22.7969 9.6403H22.0469V23.2026H22.7969H23.5469V9.6403H22.7969ZM21.7969 24.2026V23.4526H17.2578V24.2026V24.9526H21.7969V24.2026ZM16.2578 23.2026H17.0078V15.4624H16.2578H15.5078V23.2026H16.2578ZM15.2578 14.4624V13.7124H8.53906V14.4624V15.2124H15.2578V14.4624ZM7.53906 15.4624H6.78906V23.2026H7.53906H8.28906V15.4624H7.53906ZM6.53906 24.2026V23.4526H2V24.2026V24.9526H6.53906V24.2026ZM1 23.2026H1.75V9.6403H1H0.25V23.2026H1ZM1.38898 8.84869L1.84725 9.4424L11.7457 1.80215L11.2874 1.20844L10.8292 0.614729L0.930716 8.25497L1.38898 8.84869ZM12.5095 1.20844L12.0512 1.80215L21.9496 9.4424L22.4079 8.84869L22.8662 8.25497L12.9677 0.614728L12.5095 1.20844ZM11.2874 1.20844L11.7457 1.80215C11.8357 1.73269 11.9612 1.73269 12.0512 1.80215L12.5095 1.20844L12.9677 0.614728C12.3378 0.128498 11.4591 0.128499 10.8292 0.614729L11.2874 1.20844ZM1 9.6403H1.75C1.75 9.56283 1.78592 9.48973 1.84725 9.4424L1.38898 8.84869L0.930716 8.25497C0.501419 8.58633 0.25 9.098 0.25 9.6403H1ZM2 24.2026V23.4526C1.86193 23.4526 1.75 23.3407 1.75 23.2026H1H0.25C0.25 24.1691 1.0335 24.9526 2 24.9526V24.2026ZM7.53906 23.2026H6.78906C6.78906 23.3407 6.67713 23.4526 6.53906 23.4526V24.2026V24.9526C7.50556 24.9526 8.28906 24.1691 8.28906 23.2026H7.53906ZM8.53906 14.4624V13.7124C7.57256 13.7124 6.78906 14.4959 6.78906 15.4624H7.53906H8.28906C8.28906 15.3243 8.40099 15.2124 8.53906 15.2124V14.4624ZM16.2578 15.4624H17.0078C17.0078 14.4959 16.2243 13.7124 15.2578 13.7124V14.4624V15.2124C15.3959 15.2124 15.5078 15.3243 15.5078 15.4624H16.2578ZM17.2578 24.2026V23.4526C17.1197 23.4526 17.0078 23.3407 17.0078 23.2026H16.2578H15.5078C15.5078 24.1691 16.2913 24.9526 17.2578 24.9526V24.2026ZM22.7969 23.2026H22.0469C22.0469 23.3407 21.9349 23.4526 21.7969 23.4526V24.2026V24.9526C22.7634 24.9526 23.5469 24.1691 23.5469 23.2026H22.7969ZM22.7969 9.6403H23.5469C23.5469 9.098 23.2955 8.58633 22.8662 8.25497L22.4079 8.84869L21.9496 9.4424C22.011 9.48973 22.0469 9.56283 22.0469 9.6403H22.7969Z" fill="#269962"/>
</svg>
