<svg width="25" height="20" viewBox="0 0 25 20" fill="none" xmlns="http://www.w3.org/2000/svg">
<mask id="path-1-inside-1_1483_40" fill="white">
<path d="M18.6226 2.19043C18.6226 2.74271 19.0703 3.19043 19.6226 3.19043H23.5786C24.1309 3.19043 24.5786 3.63814 24.5786 4.19043V18.1436C24.5786 18.6958 24.1309 19.1436 23.5786 19.1436H1.75537C1.20309 19.1436 0.755371 18.6958 0.755371 18.1436V4.19043C0.755371 3.63814 1.20309 3.19043 1.75537 3.19043H5.71045C6.26273 3.19043 6.71045 2.74271 6.71045 2.19043V1C6.71045 0.447715 7.15816 0 7.71045 0H17.6226C18.1748 0 18.6226 0.447715 18.6226 1V2.19043Z"/>
</mask>
<path d="M19.6226 3.19043V4.69043H23.5786V3.19043V1.69043H19.6226V3.19043ZM24.5786 4.19043H23.0786V18.1436H24.5786H26.0786V4.19043H24.5786ZM23.5786 19.1436V17.6436H1.75537V19.1436V20.6436H23.5786V19.1436ZM0.755371 18.1436H2.25537V4.19043H0.755371H-0.744629V18.1436H0.755371ZM1.75537 3.19043V4.69043H5.71045V3.19043V1.69043H1.75537V3.19043ZM6.71045 2.19043H8.21045V1H6.71045H5.21045V2.19043H6.71045ZM7.71045 0V1.5H17.6226V0V-1.5H7.71045V0ZM18.6226 1H17.1226V2.19043H18.6226H20.1226V1H18.6226ZM17.6226 0V1.5C17.3464 1.5 17.1226 1.27614 17.1226 1H18.6226H20.1226C20.1226 -0.380712 19.0033 -1.5 17.6226 -1.5V0ZM6.71045 1H8.21045C8.21045 1.27614 7.98659 1.5 7.71045 1.5V0V-1.5C6.32974 -1.5 5.21045 -0.380712 5.21045 1H6.71045ZM5.71045 3.19043V4.69043C7.09116 4.69043 8.21045 3.57114 8.21045 2.19043H6.71045H5.21045C5.21045 1.91429 5.43431 1.69043 5.71045 1.69043V3.19043ZM0.755371 4.19043H2.25537C2.25537 4.46657 2.03151 4.69043 1.75537 4.69043V3.19043V1.69043C0.374659 1.69043 -0.744629 2.80972 -0.744629 4.19043H0.755371ZM1.75537 19.1436V17.6436C2.03151 17.6436 2.25537 17.8674 2.25537 18.1436H0.755371H-0.744629C-0.744629 19.5243 0.374658 20.6436 1.75537 20.6436V19.1436ZM24.5786 18.1436H23.0786C23.0786 17.8674 23.3025 17.6436 23.5786 17.6436V19.1436V20.6436C24.9593 20.6436 26.0786 19.5243 26.0786 18.1436H24.5786ZM23.5786 3.19043V4.69043C23.3025 4.69043 23.0786 4.46657 23.0786 4.19043H24.5786H26.0786C26.0786 2.80972 24.9593 1.69043 23.5786 1.69043V3.19043ZM19.6226 3.19043V1.69043C19.8987 1.69043 20.1226 1.91429 20.1226 2.19043H18.6226H17.1226C17.1226 3.57114 18.2418 4.69043 19.6226 4.69043V3.19043Z" fill="#9A9A9A" mask="url(#path-1-inside-1_1483_40)"/>
<circle cx="12.6665" cy="10.2102" r="4.10502" stroke="#9A9A9A" stroke-width="2"/>
</svg>
