<svg width="14" height="14" viewBox="0 0 14 14" fill="none" xmlns="http://www.w3.org/2000/svg">
<path d="M5.5 3.75H5.69651C5.83918 3.75 5.91058 3.75 5.97771 3.76612C6.03723 3.78041 6.09437 3.80404 6.14657 3.83602C6.20541 3.87208 6.25595 3.92261 6.35677 4.02344L8.14337 5.81004C8.24426 5.91092 8.29442 5.96109 8.33049 6.01996C8.36248 6.07215 8.38643 6.1292 8.40072 6.18872C8.41667 6.25517 8.41667 6.32572 8.41667 6.46551V10.75M5.5 3.75H2.93311C2.60641 3.75 2.44322 3.75 2.31844 3.81358C2.20868 3.86951 2.11951 3.95868 2.06358 4.06844C2 4.19322 2 4.35669 2 4.68339V11.5667C2 11.8934 2 12.0565 2.06358 12.1813C2.11951 12.2911 2.20868 12.3806 2.31844 12.4365C2.4431 12.5 2.60609 12.5 2.93216 12.5L7.48395 12.5C7.81001 12.5 7.97361 12.5 8.09827 12.4365C8.20803 12.3806 8.29694 12.2912 8.35286 12.1815C8.41644 12.0567 8.41667 11.8933 8.41667 11.5666V10.75M5.5 3.75V5.73333C5.5 6.06003 5.5 6.22327 5.56358 6.34805C5.61951 6.45781 5.70868 6.54722 5.81844 6.60315C5.9431 6.66667 6.10609 6.66667 6.43215 6.66667H8.41644M6.08333 3.75006V2.93339C6.08333 2.60669 6.08333 2.44322 6.14691 2.31844C6.20284 2.20868 6.29201 2.11951 6.40177 2.06358C6.52656 2 6.68974 2 7.01644 2H9.58333M9.58333 2H9.77984C9.92252 2 9.99391 2 10.061 2.01612C10.1206 2.03041 10.1777 2.05404 10.2299 2.08602C10.2887 2.12208 10.3393 2.17262 10.4401 2.27344L12.2267 4.06004C12.3276 4.16092 12.3778 4.21109 12.4138 4.26996C12.4458 4.32215 12.4698 4.3792 12.484 4.43872C12.5 4.50517 12.5 4.57572 12.5 4.71551V9.81658C12.5 10.1433 12.4998 10.3067 12.4362 10.4315C12.3803 10.5412 12.2917 10.6306 12.1819 10.6865C12.0573 10.75 11.8939 10.75 11.5679 10.75H8.41667M9.58333 2V3.98333C9.58333 4.31003 9.58333 4.47327 9.64691 4.59805C9.70284 4.70781 9.79201 4.79722 9.90177 4.85315C10.0264 4.91667 10.1894 4.91667 10.5155 4.91667H12.4998" stroke="#269962" stroke-linecap="round" stroke-linejoin="round"/>
</svg>
