<svg width="15" height="14" viewBox="0 0 15 14" fill="none" xmlns="http://www.w3.org/2000/svg">
<mask id="path-1-inside-1_1091_685" fill="white">
<path d="M7.44873 1.27783C9.15266 -0.4261 11.9157 -0.4261 13.6196 1.27783C15.3231 2.98169 15.3232 5.74391 13.6196 7.44775C13.6132 7.45417 13.6056 7.45994 13.5991 7.46631L7.44873 13.6187L1.27783 7.44775C-0.42567 5.74392 -0.425639 2.98169 1.27783 1.27783C2.98176 -0.4261 5.7448 -0.4261 7.44873 1.27783Z"/>
</mask>
<path d="M7.44873 1.27783C9.15266 -0.4261 11.9157 -0.4261 13.6196 1.27783C15.3231 2.98169 15.3232 5.74391 13.6196 7.44775C13.6132 7.45417 13.6056 7.45994 13.5991 7.46631L7.44873 13.6187L1.27783 7.44775C-0.42567 5.74392 -0.425639 2.98169 1.27783 1.27783C2.98176 -0.4261 5.7448 -0.4261 7.44873 1.27783Z" fill="#269962"/>
<path d="M7.44873 1.27783L6.74162 1.98494L7.44873 2.69205L8.15584 1.98494L7.44873 1.27783ZM13.6196 1.27783L14.3268 0.570801L14.3267 0.570725L13.6196 1.27783ZM13.6196 7.44775L14.3267 8.15486L14.3268 8.1548L13.6196 7.44775ZM13.5991 7.46631L12.8963 6.75488L12.8919 6.75931L13.5991 7.46631ZM7.44873 13.6187L6.74162 14.3258L7.44884 15.033L8.15595 14.3256L7.44873 13.6187ZM1.27783 7.44775L0.570656 8.15479L0.570725 8.15486L1.27783 7.44775ZM1.27783 1.27783L0.570725 0.570725L0.570645 0.570805L1.27783 1.27783ZM7.44873 1.27783L8.15584 1.98494C9.46924 0.671532 11.5991 0.671532 12.9125 1.98494L13.6196 1.27783L14.3267 0.570725C12.2323 -1.52373 8.83608 -1.52373 6.74162 0.570725L7.44873 1.27783ZM13.6196 1.27783L12.9124 1.98486C14.2255 3.29823 14.2255 5.42739 12.9125 6.74071L13.6196 7.44775L14.3268 8.1548C16.4208 6.06043 16.4207 2.66516 14.3268 0.570801L13.6196 1.27783ZM13.6196 7.44775L12.9125 6.74065C12.9277 6.72549 12.9401 6.71414 12.9469 6.70809C12.9504 6.70494 12.9531 6.70256 12.9545 6.70137C12.9557 6.70029 12.9565 6.69957 12.9556 6.70036C12.9552 6.70067 12.9528 6.70276 12.9503 6.70494C12.9476 6.70731 12.9435 6.7109 12.9386 6.71523C12.9292 6.72364 12.9141 6.73739 12.8963 6.7549L13.5991 7.46631L14.3019 8.17772C14.2874 8.19204 14.2756 8.20268 14.2696 8.20802C14.2665 8.21081 14.2642 8.21287 14.2632 8.21372C14.2624 8.21438 14.2618 8.21495 14.2632 8.21374C14.264 8.21301 14.2666 8.21076 14.2696 8.20817C14.2727 8.20545 14.2772 8.20153 14.2824 8.19684C14.2926 8.1877 14.3084 8.17323 14.3267 8.15486L13.6196 7.44775ZM13.5991 7.46631L12.8919 6.75931L6.74151 12.9117L7.44873 13.6187L8.15595 14.3256L14.3063 8.1733L13.5991 7.46631ZM7.44873 13.6187L8.15584 12.9115L1.98494 6.74065L1.27783 7.44775L0.570725 8.15486L6.74162 14.3258L7.44873 13.6187ZM1.27783 7.44775L1.98501 6.74072C0.671948 5.4274 0.671955 3.29822 1.98502 1.98486L1.27783 1.27783L0.570645 0.570805C-1.52323 2.66516 -1.52329 6.06043 0.570656 8.15479L1.27783 7.44775ZM1.27783 1.27783L1.98494 1.98494C3.29835 0.671532 5.42822 0.671532 6.74162 1.98494L7.44873 1.27783L8.15584 0.570725C6.06138 -1.52373 2.66518 -1.52373 0.570725 0.570725L1.27783 1.27783Z" fill="#269962" mask="url(#path-1-inside-1_1091_685)"/>
</svg>
