<svg width="15" height="14" viewBox="0 0 15 14" fill="none" xmlns="http://www.w3.org/2000/svg">
<mask id="path-1-inside-1_1091_613" fill="white">
<path d="M7.44824 1.27673C9.15208 -0.426985 11.9142 -0.426849 13.6182 1.27673C15.3221 2.98066 15.3221 5.7437 13.6182 7.44763L7.44824 13.6176L1.27734 7.44763C-0.426571 5.74372 -0.426538 2.98067 1.27734 1.27673C2.98128 -0.427198 5.74431 -0.427198 7.44824 1.27673Z"/>
</mask>
<path d="M7.44824 1.27673L6.74114 1.98384L7.44822 2.69092L8.15532 1.98386L7.44824 1.27673ZM13.6182 1.27673L14.3253 0.569627L14.3252 0.569557L13.6182 1.27673ZM7.44824 13.6176L6.74119 14.3247L7.4483 15.0317L8.15535 14.3247L7.44824 13.6176ZM1.27734 7.44763L0.570237 8.15474L0.570293 8.15479L1.27734 7.44763ZM1.27734 1.27673L0.570237 0.569627L0.570226 0.569638L1.27734 1.27673ZM7.44824 1.27673L8.15532 1.98386C9.4686 0.670683 11.5977 0.670713 12.9111 1.98391L13.6182 1.27673L14.3252 0.569557C12.2308 -1.52441 8.83556 -1.52465 6.74116 0.569602L7.44824 1.27673ZM13.6182 1.27673L12.9111 1.98384C14.2245 3.29725 14.2245 5.42712 12.9111 6.74053L13.6182 7.44763L14.3253 8.15474C16.4197 6.06028 16.4197 2.66408 14.3253 0.569627L13.6182 1.27673ZM13.6182 7.44763L12.9111 6.74053L6.74114 12.9104L7.44824 13.6176L8.15535 14.3247L14.3253 8.15474L13.6182 7.44763ZM7.44824 13.6176L8.15529 12.9104L1.98439 6.74047L1.27734 7.44763L0.570293 8.15479L6.74119 14.3247L7.44824 13.6176ZM1.27734 7.44763L1.98445 6.74053C0.671071 5.42715 0.671078 3.29725 1.98446 1.98383L1.27734 1.27673L0.570226 0.569638C-1.52415 2.66408 -1.52421 6.06029 0.570237 8.15474L1.27734 7.44763ZM1.27734 1.27673L1.98445 1.98384C3.29786 0.670433 5.42773 0.670433 6.74114 1.98384L7.44824 1.27673L8.15535 0.569627C6.06089 -1.52483 2.66469 -1.52483 0.570237 0.569627L1.27734 1.27673Z" fill="#787878" mask="url(#path-1-inside-1_1091_613)"/>
</svg>
