<svg width="25" height="14" viewBox="0 0 25 14" fill="none" xmlns="http://www.w3.org/2000/svg">
<path d="M6.883 8.504L9.667 0.952C9.699 0.856 9.73633 0.786666 9.779 0.743999C9.82167 0.701333 9.90167 0.679999 10.019 0.679999H12.739C12.963 0.679999 13.075 0.781333 13.075 0.983999V12.904C13.075 13.128 12.9683 13.24 12.755 13.24H10.339C10.1257 13.24 10.019 13.128 10.019 12.904V7.56L8.259 12.168C8.227 12.264 8.18967 12.3333 8.147 12.376C8.10433 12.4187 8.02433 12.44 7.907 12.44H5.859C5.74167 12.44 5.66167 12.4187 5.619 12.376C5.587 12.3227 5.54967 12.2533 5.507 12.168L0.723 1.112C0.669667 0.994666 0.664333 0.893333 0.707 0.808C0.760333 0.722666 0.851 0.679999 0.979 0.679999H3.699C3.891 0.679999 4.02433 0.765333 4.099 0.936L6.883 8.504ZM0.691 3.336C0.691 3.21867 0.749667 3.14933 0.867 3.128C0.984333 3.10667 1.06967 3.15467 1.123 3.272L3.603 9.016C3.65633 9.13333 3.69367 9.23467 3.715 9.32C3.73633 9.40533 3.747 9.50133 3.747 9.608V12.936C3.747 13.1387 3.64033 13.24 3.427 13.24H1.027C0.803 13.24 0.691 13.1387 0.691 12.936V3.336ZM24.515 0.679999C24.7817 0.679999 24.8617 0.807999 24.755 1.064L21.555 8.28C21.5017 8.39733 21.427 8.456 21.331 8.456C21.2457 8.456 21.1763 8.39733 21.123 8.28L19.875 5.032C19.811 4.88267 19.8057 4.73333 19.859 4.584L21.235 0.936C21.2777 0.765333 21.4003 0.679999 21.603 0.679999H24.515ZM21.171 12.904C21.171 13.128 21.0643 13.24 20.851 13.24H18.131C17.9177 13.24 17.811 13.128 17.811 12.904V9.16L14.243 1.064C14.1897 0.946666 14.1843 0.856 14.227 0.792C14.2803 0.717333 14.371 0.679999 14.499 0.679999H17.379C17.571 0.679999 17.7043 0.765333 17.779 0.936L21.059 9.432C21.1337 9.60267 21.171 9.784 21.171 9.976V12.904Z" fill="#269962"/>
</svg>
