<svg width="24" height="25" viewBox="0 0 24 25" fill="none" xmlns="http://www.w3.org/2000/svg">
<path d="M1.38898 8.84789L1.84725 9.4416L1.38898 8.84789ZM22.4079 8.84789L21.9496 9.4416L22.4079 8.84789ZM22.7969 9.63951H22.0469V23.2018H22.7969H23.5469V9.63951H22.7969ZM21.7969 24.2018V23.4518H17.2578V24.2018V24.9518H21.7969V24.2018ZM16.2578 23.2018H17.0078V15.4616H16.2578H15.5078V23.2018H16.2578ZM15.2578 14.4616V13.7116H8.53906V14.4616V15.2116H15.2578V14.4616ZM7.53906 15.4616H6.78906V23.2018H7.53906H8.28906V15.4616H7.53906ZM6.53906 24.2018V23.4518H2V24.2018V24.9518H6.53906V24.2018ZM1 23.2018H1.75V9.63951H1H0.25V23.2018H1ZM1.38898 8.84789L1.84725 9.4416L11.7457 1.80136L11.2874 1.20765L10.8292 0.613935L0.930716 8.25418L1.38898 8.84789ZM12.5095 1.20765L12.0512 1.80136L21.9496 9.4416L22.4079 8.84789L22.8662 8.25418L12.9677 0.613935L12.5095 1.20765ZM11.2874 1.20765L11.7457 1.80136C11.8357 1.7319 11.9612 1.7319 12.0512 1.80136L12.5095 1.20765L12.9677 0.613935C12.3378 0.127705 11.4591 0.127705 10.8292 0.613935L11.2874 1.20765ZM1 9.63951H1.75C1.75 9.56204 1.78592 9.48894 1.84725 9.4416L1.38898 8.84789L0.930716 8.25418C0.501419 8.58554 0.25 9.0972 0.25 9.63951H1ZM2 24.2018V23.4518C1.86193 23.4518 1.75 23.3399 1.75 23.2018H1H0.25C0.25 24.1683 1.0335 24.9518 2 24.9518V24.2018ZM7.53906 23.2018H6.78906C6.78906 23.3399 6.67713 23.4518 6.53906 23.4518V24.2018V24.9518C7.50556 24.9518 8.28906 24.1683 8.28906 23.2018H7.53906ZM8.53906 14.4616V13.7116C7.57256 13.7116 6.78906 14.4951 6.78906 15.4616H7.53906H8.28906C8.28906 15.3235 8.40099 15.2116 8.53906 15.2116V14.4616ZM16.2578 15.4616H17.0078C17.0078 14.4951 16.2243 13.7116 15.2578 13.7116V14.4616V15.2116C15.3959 15.2116 15.5078 15.3235 15.5078 15.4616H16.2578ZM17.2578 24.2018V23.4518C17.1197 23.4518 17.0078 23.3399 17.0078 23.2018H16.2578H15.5078C15.5078 24.1683 16.2913 24.9518 17.2578 24.9518V24.2018ZM22.7969 23.2018H22.0469C22.0469 23.3399 21.9349 23.4518 21.7969 23.4518V24.2018V24.9518C22.7634 24.9518 23.5469 24.1683 23.5469 23.2018H22.7969ZM22.7969 9.63951H23.5469C23.5469 9.0972 23.2955 8.58554 22.8662 8.25418L22.4079 8.84789L21.9496 9.4416C22.011 9.48894 22.0469 9.56204 22.0469 9.63951H22.7969Z" fill="#C0C0C0"/>
</svg>
