<svg width="14" height="20" viewBox="0 0 14 20" fill="none" xmlns="http://www.w3.org/2000/svg">
<path d="M5.76074 0C5.93465 2.51401 8.50005 5.90894 12 9.18164H11.998C13.2362 10.3295 14 11.9021 14 13.6367C13.9998 17.1511 10.8659 20 7 20C3.25482 20 0.196278 17.3262 0.00878906 13.9639L0 13.6367L0.00976562 13.1143C0.110789 10.2613 1.06529 3.88879 5.76074 0Z" fill="#E55508"/>
<path d="M6.28125 8C6.36822 9.257 7.65043 10.9545 9.40039 12.5908H9.39844C10.0178 13.1648 10.4004 13.9508 10.4004 14.8184C10.4003 16.5755 8.83332 18 6.90039 18C5.02764 18 3.49877 16.6628 3.40527 14.9814L3.40039 14.8184L3.40527 14.5576C3.45569 13.1313 3.93322 9.94461 6.28125 8Z" fill="#F5C919"/>
</svg>
