<svg width="13" height="18" viewBox="0 0 13 18" fill="none" xmlns="http://www.w3.org/2000/svg">
<path d="M1.75 1C1.75 0.585786 1.41421 0.25 1 0.25C0.585786 0.25 0.25 0.585786 0.25 1H1.75ZM1 12H0.25V12.75H1V12ZM12.5303 12.5303C12.8232 12.2374 12.8232 11.7626 12.5303 11.4697L7.75736 6.6967C7.46447 6.40381 6.98959 6.40381 6.6967 6.6967C6.40381 6.98959 6.40381 7.46447 6.6967 7.75736L10.9393 12L6.6967 16.2426C6.40381 16.5355 6.40381 17.0104 6.6967 17.3033C6.98959 17.5962 7.46447 17.5962 7.75736 17.3033L12.5303 12.5303ZM1 1H0.25V12H1H1.75V1H1ZM1 12V12.75H12V12V11.25H1V12Z" fill="#269962"/>
</svg>
