<svg width="16" height="8" viewBox="0 0 16 8" fill="none" xmlns="http://www.w3.org/2000/svg">
<mask id="path-1-inside-1_224_14" fill="white">
<path d="M7.93421 0C11.1443 0 13.9771 1.36795 15.675 3.4545C15.9342 3.7731 15.9342 4.22689 15.675 4.54549C13.9771 6.63199 11.1442 8 7.93421 8C4.72444 7.99989 1.89221 6.63188 0.194448 4.5455C-0.0648118 4.2269 -0.0648167 3.7731 0.194437 3.45449C1.89217 1.36806 4.72438 0.000109018 7.93421 0Z"/>
</mask>
<path d="M7.93421 0V-0.7H7.93419L7.93421 0ZM7.93421 8L7.93419 8.7H7.93421V8ZM0.194437 3.45449L-0.348522 3.01268L0.194437 3.45449ZM15.675 3.4545L16.2179 3.01269L15.675 3.4545ZM15.675 4.54549L15.132 4.10367L15.675 4.54549ZM7.93421 0V0.7C10.9504 0.7 13.5773 1.98571 15.132 3.89631L15.675 3.4545L16.2179 3.01269C14.3769 0.750183 11.3381 -0.7 7.93421 -0.7V0ZM15.675 4.54549L15.132 4.10367C13.5773 6.01424 10.9504 7.3 7.93421 7.3V8V8.7C11.338 8.7 14.3769 7.24975 16.2179 4.98731L15.675 4.54549ZM7.93421 8L7.93423 7.3C4.91834 7.2999 2.29202 6.01416 0.737399 4.10369L0.194448 4.5455L-0.348503 4.98732C1.49239 7.24959 4.53055 8.69988 7.93419 8.7L7.93421 8ZM0.194437 3.45449L0.737397 3.8963C2.29199 1.98579 4.91826 0.700102 7.93423 0.7L7.93421 0L7.93419 -0.7C4.5305 -0.699884 1.49235 0.750338 -0.348522 3.01268L0.194437 3.45449ZM0.194448 4.5455L0.737399 4.10369C0.687534 4.04241 0.687534 3.95757 0.737397 3.8963L0.194437 3.45449L-0.348522 3.01268C-0.817167 3.58862 -0.817158 4.41139 -0.348503 4.98732L0.194448 4.5455ZM15.675 3.4545L15.132 3.89631C15.1819 3.95758 15.1819 4.0424 15.132 4.10367L15.675 4.54549L16.2179 4.98731C16.6866 4.41139 16.6866 3.58862 16.2179 3.01269L15.675 3.4545Z" fill="#797979" mask="url(#path-1-inside-1_224_14)"/>
<circle cx="8.00049" cy="4" r="2.65" stroke="#797979" stroke-width="0.7"/>
</svg>
