<svg width="328" height="54" viewBox="0 0 328 54" fill="none" xmlns="http://www.w3.org/2000/svg">
<rect x="0.5" y="0.5" width="327" height="53" rx="26.5" fill="#2D8779" stroke="#2D8779"/>
<path d="M151.348 30.404V31.594H139.896V30.404H144.88V28.248H141.282V24.174H148.562V22.48H141.254V21.318H149.99V25.322H142.696V27.086H150.27V28.248H146.322V30.404H151.348ZM161.301 22.858H153.993V21.696H162.743V23.054C162.743 24.748 162.757 26.512 162.267 29.2L160.811 29.046C161.301 26.554 161.301 24.706 161.301 23.054V22.858ZM164.213 30.124V31.314H152.775V30.124H164.213ZM176.069 29.62H174.627V20.436H176.069V29.62ZM172.597 24.44C172.597 26.274 171.155 27.604 169.251 27.604C167.347 27.604 165.891 26.274 165.891 24.44C165.891 22.578 167.347 21.276 169.251 21.276C171.155 21.276 172.597 22.578 172.597 24.44ZM167.305 24.44C167.305 25.588 168.131 26.358 169.251 26.358C170.357 26.358 171.197 25.588 171.197 24.44C171.197 23.264 170.357 22.522 169.251 22.522C168.131 22.522 167.305 23.264 167.305 24.44ZM176.433 31.664V32.84H167.809V28.696H169.265V31.664H176.433Z" fill="white"/>
</svg>
