<svg width="18" height="25" viewBox="0 0 18 25" fill="none" xmlns="http://www.w3.org/2000/svg">
<circle cx="8.82398" cy="9.02726" r="3.26359" stroke="#269962" stroke-width="1.5"/>
<path d="M8.90527 1L8.90527 0.25L8.90526 0.25L8.90527 1ZM17.0137 9.1084L17.7637 9.1084L17.7637 9.10839L17.0137 9.1084ZM16.3848 12.2422L15.6931 11.9521L15.6805 11.9821L15.6706 12.0132L16.3848 12.2422ZM8.90527 24.0781L8.47275 24.6908L8.87204 24.9727L9.29115 24.7212L8.90527 24.0781ZM1.43066 12.2568L2.14503 12.0284L2.13479 11.9964L2.12173 11.9654L1.43066 12.2568ZM0.796875 9.1084L0.046875 9.10839V9.1084H0.796875ZM8.90527 1V1.75C12.9692 1.75 16.2636 5.04445 16.2637 9.10841L17.0137 9.1084L17.7637 9.10839C17.7636 4.21604 13.7977 0.25 8.90527 0.25V1ZM17.0137 9.1084H16.2637C16.2637 10.1176 16.0599 11.0776 15.6931 11.9521L16.3848 12.2422L17.0764 12.5323C17.5185 11.4783 17.7637 10.3214 17.7637 9.1084H17.0137ZM16.3848 12.2422L15.6706 12.0132C14.6978 15.0472 13.2536 17.7067 11.8632 19.7195C11.1684 20.7253 10.4915 21.563 9.90038 22.2005C9.29858 22.8496 8.81813 23.2558 8.5194 23.435L8.90527 24.0781L9.29115 24.7212C9.77145 24.4331 10.3658 23.9048 11.0003 23.2204C11.6456 22.5244 12.3667 21.6296 13.0973 20.572C14.5578 18.4579 16.0743 15.6669 17.099 12.4712L16.3848 12.2422ZM8.90527 24.0781L9.33779 23.4654C7.36394 22.0721 5.74706 19.8122 4.52053 17.5587C3.30066 15.3174 2.50483 13.1536 2.14503 12.0284L1.43066 12.2568L0.7163 12.4853C1.09639 13.6739 1.92633 15.9301 3.20303 18.2758C4.47307 20.6092 6.22356 23.1031 8.47275 24.6908L8.90527 24.0781ZM1.43066 12.2568L2.12173 11.9654C1.75174 11.0881 1.54688 10.1231 1.54688 9.1084H0.796875H0.046875C0.046875 10.3267 0.293181 11.4897 0.739599 12.5483L1.43066 12.2568ZM0.796875 9.1084L1.54687 9.10841C1.54694 5.04449 4.84137 1.75005 8.90528 1.75L8.90527 1L8.90526 0.25C4.01293 0.250063 0.046951 4.21606 0.046875 9.10839L0.796875 9.1084Z" fill="#269962"/>
</svg>
